<?xml version="1.0" encoding="utf-8"?>
<!-- Generator: Adobe Illustrator 16.0.0, SVG Export Plug-In . SVG Version: 6.00 Build 0)  -->
<!DOCTYPE svg PUBLIC "-//W3C//DTD SVG 1.1//EN" "http://www.w3.org/Graphics/SVG/1.1/DTD/svg11.dtd">
<svg version="1.1" id="Layer_1" xmlns="http://www.w3.org/2000/svg" xmlns:xlink="http://www.w3.org/1999/xlink" x="0px" y="0px"
	 width="200.667px" height="48px" viewBox="0 0 200.667 48" enable-background="new 0 0 200.667 48" xml:space="preserve">
	 <g id="logo">
<path stroke-width="4" stroke-linecap="round" stroke-linejoin="round" stroke-miterlimit="10" d="
	M39.792,5.057c0,0-25.634,1.433-28.688,10.084c-3.219,9.117,19.475,6.904,19.475,6.904S6.15,26.976,3.607,38.172
	c-3.045,13.4,38.678,2.072,38.678,2.072"/>
<path stroke-width="4" stroke-linecap="round" stroke-linejoin="round" stroke-miterlimit="10" d="
	M136.815,45.029c0,0,8.79-36.218-0.383-37.862c-9.481-1.699-13.152,18.802-13.152,18.802s3.727-22.441-4.52-23.537
	c-12.776-1.697-17.256,42.597-17.256,42.597"/>
<polyline stroke-width="3" stroke-linecap="round" stroke-miterlimit="10" points="42.689,22.462
	47.913,37.805 59.647,18.828 "/>
<path stroke-width="3" stroke-linecap="round" stroke-miterlimit="10" d="M56.768,37.805
	c0,0,6.45-15.747,11.359-15.747s3.451,15.747,3.451,15.747"/>
<path stroke-width="3" stroke-linecap="round" stroke-linejoin="round" stroke-miterlimit="10" d="
	M79.745,24.021l-2.422,13.784c0,0,2.422-15.747,11.597-15.747c8.884,0,3.23,16.555,3.23,16.555"/>
<path stroke-width="3" stroke-linecap="round" stroke-linejoin="round" stroke-miterlimit="10" d="
	M157.448,22.406l-3.23,15.398c0,0,2.423-15.747,11.596-15.747c7.831,0,2.423,15.747,2.423,15.747"/>
<line stroke-width="3" stroke-linecap="round" stroke-miterlimit="10" x1="146.727" y1="37.805" x2="149.149" y2="23.742"/>
<line stroke-width="3" stroke-linecap="round" stroke-miterlimit="10" x1="176.455" y1="38.612" x2="182.44" y2="4"/>
<line stroke-width="3" stroke-linecap="round" stroke-miterlimit="10" x1="173.107" y1="16.204" x2="190.873" y2="16.204"/>
<path stroke-width="3" stroke-linecap="round" stroke-miterlimit="10" d="M192.078,24.289
	c6.568,0.06,8.509,12.708,0,12.708C181.733,36.998,185.51,24.229,192.078,24.289z"/>
<path stroke-width="2" d="M150.551,13.618c2.672,0.023,3.462,5.171,0,5.171C146.34,18.789,147.878,13.592,150.551,13.618z"/>
<line stroke-width="3" stroke-linecap="round" stroke-miterlimit="10" x1="61.342" y1="30.289" x2="71.606" y2="30.289"/>
	</g>
</svg>
